<svg version="1.0" xmlns="http://www.w3.org/2000/svg"
 width="auto" height="auto" viewBox="0 0 451.00 451.00"
 preserveAspectRatio="xMidYMid meet" manifest="statelessvault.appcache">

<g transform="translate(0.00,451.00) scale(0.1,-0.1)"
fill="#215272" stroke="none">

<path d="M2190 4366 c-380 -246 -967 -475 -1680 -655 l-195 -49 2 -363 c3
-619 36 -1045 100 -1279 112 -413 303 -744 613 -1064 177 -183 404 -366 630
-508 205 -128 555 -303 603 -300 10 0 73 26 140 57 737 339 1318 885 1571
1478 151 354 188 594 216 1412 14 398 13 565 -2 569 -7 2 -83 21 -168 41 -284
67 -626 172 -915 280 -242 90 -601 264 -765 369 -36 23 -69 45 -75 48 -5 3
-39 -13 -75 -36z m210 -181 c356 -206 932 -424 1518 -574 84 -21 156 -41 159
-45 16 -16 -7 -768 -33 -1076 -24 -300 -50 -427 -128 -642 -221 -611 -751
-1146 -1491 -1504 -122 -60 -162 -75 -183 -69 -48 11 -324 151 -460 233 -319
192 -586 417 -795 667 -133 159 -224 298 -312 480 -185 378 -223 629 -251
1672 l-7 241 39 11 c21 5 86 22 144 36 582 145 1192 380 1570 604 l85 50 40
-23 c22 -13 69 -40 105 -61z"/>

<path d="M2189 4044 c-96 -63 -314 -174 -479 -244 -200 -86 -632 -228 -885
-291 -116 -28 -214 -55 -219 -60 -13 -11 13 -800 34 -1024 10 -110 26 -235 35
-278 114 -552 455 -1012 1028 -1391 151 -100 314 -189 465 -255 l93 -41 112
50 c403 181 824 496 1068 800 183 229 323 513 385 780 45 195 84 759 84 1192
l0 173 -173 42 c-546 134 -1025 317 -1370 525 -56 33 -104 62 -107 63 -3 1
-34 -17 -71 -41z m127 -66 c305 -194 823 -397 1364 -533 l165 -41 -3 -225 c-6
-545 -38 -937 -93 -1134 -77 -275 -196 -496 -392 -731 -242 -290 -598 -556
-975 -729 l-122 -55 -132 62 c-656 306 -1129 782 -1326 1334 -53 148 -70 226
-92 438 -30 293 -56 1019 -36 1034 6 5 61 21 121 36 524 129 1065 336 1385
530 41 25 77 46 81 46 3 0 27 -14 55 -32z"/>

<path d="M2185 3279 c-85 -13 -180 -62 -245 -128 -100 -102 -139 -211 -140
-388 l0 -93 -32 0 c-51 0 -112 -35 -137 -80 -19 -34 -21 -51 -19 -132 l3 -93
648 -3 647 -2 0 98 c0 76 -4 105 -19 132 -22 43 -84 80 -133 80 l-38 0 0 83
c0 183 -41 299 -140 398 -105 106 -244 151 -395 128z m181 -198 c62 -28 119
-85 144 -143 18 -42 22 -72 24 -157 l1 -106 -272 -3 -273 -2 0 112 c0 98 3
120 24 164 27 58 91 117 150 138 59 21 152 19 202 -3z"/>

<path d="M1610 2125 l0 -165 650 0 650 0 0 165 0 165 -650 0 -650 0 0 -165z"/>

<path d="M1610 1809 c0 -101 23 -149 85 -179 40 -19 62 -20 566 -20 525 0 525
0 569 23 62 31 80 71 80 174 l0 83 -650 0 -650 0 0 -81z"/>
</g>
</svg>